<?xml version="1.0" encoding="UTF-8" standalone="no"?>
<!-- Created with Inkscape (http://www.inkscape.org/) -->

<svg
   xmlns:dc="http://purl.org/dc/elements/1.1/"
   xmlns:cc="http://creativecommons.org/ns#"
   xmlns:rdf="http://www.w3.org/1999/02/22-rdf-syntax-ns#"
   xmlns:svg="http://www.w3.org/2000/svg"
   xmlns="http://www.w3.org/2000/svg"
   xmlns:sodipodi="http://sodipodi.sourceforge.net/DTD/sodipodi-0.dtd"
   xmlns:inkscape="http://www.inkscape.org/namespaces/inkscape"
   width="78.332397mm"
   height="90.278831mm"
   viewBox="0 0 78.332397 90.278831"
   version="1.1"
   id="svg877"
   inkscape:version="0.92.4 (5da689c313, 2019-01-14)"
   sodipodi:docname="mmk.svg">
  <defs
     id="defs871" />
  <sodipodi:namedview
     id="base"
     pagecolor="#ffffff"
     bordercolor="#666666"
     borderopacity="1.0"
     inkscape:pageopacity="0.0"
     inkscape:pageshadow="2"
     inkscape:zoom="0.35"
     inkscape:cx="-483.39876"
     inkscape:cy="144.89139"
     inkscape:document-units="mm"
     inkscape:current-layer="layer1"
     showgrid="false"
     inkscape:window-width="3840"
     inkscape:window-height="2035"
     inkscape:window-x="-13"
     inkscape:window-y="-13"
     inkscape:window-maximized="1" />
  <metadata
     id="metadata874">
    <rdf:RDF>
      <cc:Work
         rdf:about="">
        <dc:format>image/svg+xml</dc:format>
        <dc:type
           rdf:resource="http://purl.org/dc/dcmitype/StillImage" />
        <dc:title></dc:title>
      </cc:Work>
    </rdf:RDF>
  </metadata>
  <g
     inkscape:label="Layer 1"
     inkscape:groupmode="layer"
     id="layer1"
     transform="translate(-68.93497,-96.89035)">
    <path
       style="fill:#000000;fill-opacity:1;stroke:none;stroke-width:0.13363476"
       d="m 94.83269,187.06105 c -3.61357,-0.2179 -7.26224,-1.52453 -10.33059,-3.69951 -1.72927,-1.22578 -4.13539,-3.71582 -5.33245,-5.51844 -1.53794,-2.31595 -2.67424,-4.8963 -3.09894,-7.0372 -0.4424,-2.23014 -0.49382,-4.39563 -0.56571,-23.82795 l -0.072,-19.44386 -0.67882,-0.46772 c -1.38105,-0.95157 -1.58043,-1.92584 -1.58977,-7.76821 -0.006,-3.49349 0.0267,-4.1984 0.22051,-4.81086 0.31602,-0.99872 0.84029,-1.7142 1.61733,-2.20716 1.2928,-0.82016 1.54763,-1.11801 2.26992,-2.65311 1.26256,-2.68337 2.56806,-4.54825 4.56316,-6.51839 2.81593,-2.78069 6.102,-4.661199 9.77595,-5.594459 2.30403,-0.58527 5.36422,-0.74463 10.31301,-0.53705 2.09472,0.0879 4.22954,0.21998 4.74403,0.2936 2.93421,0.41982 7.6711,2.6423 13.00736,6.102869 2.76324,1.79196 4.71953,3.35447 9.61358,7.67848 4.05636,3.5839 5.09642,4.40983 5.42269,4.30628 0.14176,-0.045 0.68974,-0.36382 1.21774,-0.7085 1.77815,-1.16079 4.01242,-1.61972 5.61597,-1.15356 1.8687,0.54324 3.68444,1.83512 4.61292,3.28204 1.46943,2.2899 1.47913,5.31171 0.0243,7.55815 -1.53488,2.37 -4.43851,3.76852 -7.06562,3.40312 -2.28038,-0.31717 -4.02948,-1.43901 -5.16814,-3.31476 -0.58393,-0.96191 -1.02153,-2.06188 -1.02153,-2.56774 0,-0.2179 -0.14154,-0.55315 -0.32233,-0.76345 l -0.32233,-0.37495 h -2.85149 -2.8515 l -0.0949,1.60362 c -0.17775,3.00262 -0.44002,3.77162 -1.65593,4.85534 l -0.75864,0.67617 -0.0665,21.22168 -0.0665,21.22169 -0.58656,1.73725 c -0.74384,2.20306 -2.05788,4.84943 -3.21815,6.48107 -1.15716,1.62726 -3.22753,3.69592 -4.84507,4.84105 -1.47686,1.04555 -3.70085,2.17724 -5.41198,2.75393 -2.1762,0.73342 -3.00014,0.83756 -7.61719,0.9628 -4.79338,0.13002 -5.07388,0.12955 -7.42573,-0.0122 z m 8.49481,-1.99347 c 4.19254,-0.15723 5.51077,-0.47723 8.63258,-2.09552 1.8488,-0.95839 3.37391,-2.11635 4.94988,-3.75829 2.37542,-2.47485 3.7811,-5.05935 4.81328,-8.84974 0.12502,-0.45909 0.17474,-5.52536 0.21016,-21.41497 l 0.0464,-20.81361 h -1.52874 -1.52874 l -0.0853,1.5702 c -0.14569,2.68133 -0.35648,5.00409 -0.54452,6.00029 -0.3101,1.64275 -1.34551,3.34064 -2.9741,4.87697 -1.20005,1.13207 -1.89826,1.60665 -3.43392,2.3341 -2.57246,1.21859 -3.99722,1.38948 -11.54449,1.38475 -7.02565,-0.004 -9.25967,-0.13011 -10.67159,-0.60051 -2.57519,-0.85796 -4.84295,-2.32754 -6.17143,-3.9993 -0.90652,-1.14075 -1.80191,-2.81517 -2.08361,-3.89641 -0.18395,-0.70607 -0.46067,-4.79333 -0.46726,-6.9017 l -0.002,-0.76839 h -1.68106 -1.68106 l 0.063,19.81135 c 0.0639,20.0975 0.0924,21.23999 0.58296,23.35267 0.32069,1.38118 1.92962,4.56537 3.07236,6.08038 1.22126,1.61913 3.35452,3.72931 4.62756,4.5775 1.68961,1.12574 4.16219,2.19897 6.40523,2.7802 1.65986,0.43011 5.36253,0.54125 10.99484,0.33003 z m 5.07812,-43.08359 c 2.4369,-0.55314 4.22819,-1.53925 5.89678,-3.24618 1.80327,-1.8447 2.35386,-3.5588 2.3759,-7.39675 0.0109,-1.89884 -0.0228,-2.28558 -0.24148,-2.77292 l -0.25415,-0.56633 h -10.64856 c -5.85671,0 -13.27433,0.0399 -16.4836,0.0886 l -5.83504,0.0886 v 3.2242 c 0,3.61403 0.0977,4.24936 0.86465,5.62073 1.05285,1.88268 2.22971,2.92847 4.50058,3.99934 2.54127,1.19839 3.20641,1.26442 12.20774,1.21199 5.52063,-0.0322 6.8443,-0.0758 7.61718,-0.25125 z m 11.83016,-16.10838 c 2.42524,-0.0868 3.09604,-0.15214 3.45162,-0.33601 0.79536,-0.4113 0.82142,-0.60171 0.81933,-5.9859 l -0.002,-4.84855 -0.76652,-0.64951 -0.76652,-0.6495 -21.78246,0.0845 c -11.98036,0.0465 -22.52873,0.13923 -23.44081,0.20614 -2.07136,0.15193 -2.24167,0.27238 -2.42261,1.71344 -0.1519,1.20967 -0.20625,8.54131 -0.0666,8.98345 0.058,0.18375 0.3135,0.61973 0.5677,0.96885 l 0.46219,0.63477 20.46815,-0.007 c 11.25748,-0.004 21.82277,-0.0555 23.47841,-0.11473 z m 21.84808,-0.52794 c 1.6179,-0.75711 2.77647,-2.21863 3.13756,-3.95798 0.44012,-2.12006 -1.15327,-4.86493 -3.30226,-5.68865 -1.61388,-0.61862 -3.77213,-0.29478 -5.16743,0.77536 -1.38661,1.06348 -1.89792,2.37065 -1.79003,4.57631 0.0694,1.41805 0.30495,2.03544 1.12163,2.9394 1.61888,1.79191 3.94508,2.31742 6.00053,1.35556 z m -9.09899,-7.04393 c 0.1155,-0.11549 0.21,-0.28688 0.21,-0.38085 0,-0.36302 -0.84401,-1.3021 -2.62446,-2.92005 -3.61745,-3.28728 -7.16176,-6.1108 -7.67079,-6.1108 -0.32608,0 -0.40319,0.44675 -0.20738,1.2016 0.22471,0.8663 0.51727,1.2827 1.11674,1.58945 0.84375,0.43175 1.88737,1.36962 2.16158,1.94256 0.16217,0.33882 0.31641,1.10099 0.40778,2.01494 0.20072,2.00788 0.31973,2.40735 0.77014,2.58511 0.51783,0.20437 1.0119,0.2424 3.46438,0.26665 1.807,0.0179 2.1965,-0.0131 2.37201,-0.18861 z m -15.86301,-6.98687 c 2.32327,-0.0639 3.42046,-0.14234 3.53046,-0.25234 0.23123,-0.23123 -1.09694,-2.88646 -2.12281,-4.24383 -0.90963,-1.20358 -3.04194,-3.35839 -4.2317,-4.27636 -0.43425,-0.33506 -1.27305,-0.88109 -1.86399,-1.21341 -3.51016,-1.973979 -5.69459,-2.372259 -13.04854,-2.379119 -4.86339,-0.005 -6.51858,0.17073 -8.82389,0.93439 -3.27682,1.085469 -6.90464,3.683639 -9.03896,6.473499 -1.57384,2.05723 -2.70579,4.33416 -2.33769,4.70226 0.1046,0.1046 0.88171,0.19047 2.19652,0.2427 2.87273,0.11414 31.67767,0.12397 35.7406,0.0122 z"
       id="path839"
       inkscape:connector-curvature="0" />
    <path
       style="fill:#000000;fill-opacity:1;stroke:none;stroke-width:0.13363476"
       d="m 104.26295,139.44242 c -1.61593,-0.73043 -1.60854,-3.02529 0.0115,-3.55995 0.88475,-0.29199 1.87839,0.25468 2.25491,1.24057 0.30444,0.79715 0.0758,1.48448 -0.66277,1.99247 -0.68119,0.46851 -1.10102,0.5541 -1.60362,0.32691 z"
       id="path841"
       inkscape:connector-curvature="0" />
    <path
       style="fill:#000000;fill-opacity:1;stroke:none;stroke-width:0.13363476"
       d="m 94.37397,139.46508 c -0.56308,-0.1955 -0.86796,-0.4884 -1.15183,-1.10658 -0.3688,-0.80314 -0.31995,-1.1928 0.2252,-1.79623 0.81068,-0.89732 1.66844,-1.00592 2.5638,-0.32461 0.65907,0.50151 0.87502,1.0085 0.70249,1.64923 -0.31211,1.15908 -1.41127,1.9005 -2.33966,1.57819 z"
       id="path843"
       inkscape:connector-curvature="0" />
    <path
       style="fill:#000000;fill-opacity:1;stroke:none;stroke-width:0.13363476"
       d="m 90.6322,132.85063 c -0.147,-0.0356 -0.39997,-0.18695 -0.56215,-0.33643 -0.27252,-0.25117 -0.28023,-0.3001 -0.10169,-0.64536 0.10625,-0.20547 0.32915,-0.41814 0.49533,-0.4726 0.53248,-0.17451 7.43734,-0.0981 7.65764,0.0847 0.29722,0.24667 0.25357,1.15725 -0.0636,1.32701 -0.25771,0.13792 -6.87461,0.17595 -7.42552,0.0427 z"
       id="path845"
       inkscape:connector-curvature="0" />
    <path
       style="fill:#000000;fill-opacity:1;stroke:none;stroke-width:0.13363476"
       d="m 101.80684,132.8213 c -0.4763,-0.12191 -0.67888,-0.32996 -0.68226,-0.70068 -0.003,-0.36212 0.35942,-0.62202 1.00277,-0.71849 0.77188,-0.11575 6.87062,-2.7e-4 7.18402,0.13595 0.58825,0.25581 0.57561,0.92853 -0.0219,1.16743 -0.43717,0.17477 -6.86356,0.27422 -7.4826,0.11579 z"
       id="path847"
       inkscape:connector-curvature="0" />
    <path
       style="fill:#000000;fill-opacity:1;stroke:none;stroke-width:0.13363476"
       d="m 98.11575,151.60801 c -1.22077,-0.56969 -2.40504,-2.29841 -2.31347,-3.37707 0.0872,-1.02745 0.91208,-0.9415 1.06334,0.1108 0.20022,1.39288 1.15908,2.29307 2.62707,2.46635 1.48704,0.17553 2.46367,-0.48559 3.25291,-2.20202 0.39376,-0.85635 0.56651,-1.10283 0.74747,-1.06651 0.35573,0.0714 0.31029,1.58875 -0.0697,2.32657 -0.3721,0.72254 -1.47006,1.698 -2.13572,1.89744 -0.91382,0.27379 -2.40902,0.20046 -3.17193,-0.15556 z"
       id="path849"
       inkscape:connector-curvature="0" />
    <path
       style="fill:#000000;fill-opacity:1;stroke:none;stroke-width:0.13363476"
       d="m 71.58924,138.79096 c -0.80914,-0.40207 -1.87863,-1.48551 -2.2737,-2.30334 -0.45421,-0.94029 -0.50447,-2.05581 -0.13666,-3.03373 0.31244,-0.8307 1.20986,-1.9256 1.95655,-2.38707 0.55282,-0.34166 1.35888,-0.54957 1.465,-0.37787 0.15201,0.24595 0.0896,7.82825 -0.0668,8.12055 -0.18726,0.3499 -0.20358,0.34958 -0.9444,-0.0186 z"
       id="path851"
       inkscape:connector-curvature="0" />
    <path
       style="fill:#000000;fill-opacity:1;stroke:none;stroke-width:0.13363476"
       d="m 126.86776,137.33526 c -0.048,-0.89353 -0.0873,-2.7878 -0.0873,-4.20949 0,-2.09557 0.0345,-2.5849 0.18249,-2.5849 0.39908,0 2.09418,0.97254 2.49928,1.43392 0.72603,0.8269 0.98919,1.5653 0.98919,2.77557 0,1.27858 -0.28282,2.00335 -1.14804,2.942 -0.58069,0.62997 -1.63546,1.2675 -2.09704,1.2675 -0.22725,0 -0.2595,-0.15477 -0.33853,-1.6246 z"
       id="path853"
       inkscape:connector-curvature="0" />
  </g>
</svg>
